<?xml version="1.0" encoding="utf-8"?>
<!-- Generator: Adobe Illustrator 24.0.2, SVG Export Plug-In . SVG Version: 6.00 Build 0)  -->
<svg version="1.1" id="Capa_1" xmlns="http://www.w3.org/2000/svg" xmlns:xlink="http://www.w3.org/1999/xlink" x="0px" y="0px"
	 viewBox="0 0 425.2 425.2" style="enable-background:new 0 0 425.2 425.2;" xml:space="preserve">
<style type="text/css">
	.st0{fill:#040304;stroke:#000000;stroke-miterlimit:10;}
	.st1{fill:none;stroke:#000000;stroke-width:3;stroke-miterlimit:10;}
</style>
<g>
	<path class="st0" d="M197.39,236.01h20.82c11.28-115.44,53.94-103.77,63.57-99.58c0.32,0.14,0.62-0.34,0.32-0.52
		c-37.08-23.58-57.27,29.91-66.93,70.85c-0.33,1.38-2.35,1.15-2.34-0.27c0.18-37.62-11.18-92.72-69.96-130.1
		c-0.32-0.2-0.64,0.27-0.35,0.51C157.38,88.94,225.75,150.13,197.39,236.01z"/>
	<path class="st0" d="M140.68,83.33c0,0,6.98-25.39,36.13-24.03S221,69.32,221,69.32S165.59,59.52,140.68,83.33z"/>
	<path class="st0" d="M143.02,79.57c-36.75,49.31-27.18,86.65-27.18,86.65S89.64,102.01,143.02,79.57"/>
	<path class="st0" d="M143.35,78.93c-48.33,13.2-63.68,41.75-63.68,41.75S100.53,66.75,143.35,78.93"/>
	<path class="st0" d="M188.82,41.62c-41.24,15.63-48.14,41.7-48.14,41.7S146.2,34.78,188.82,41.62"/>
	<path class="st0" d="M282.19,135.43c0,0.01,0.01,0.02,0.01,0.01c0.7-0.93,15.36-20.73,1.95-33.44
		c-13.73-13.02-26.69-14.37-26.69-14.37S288.86,107.5,282.19,135.43z"/>
	<path class="st0" d="M307.52,184.18c0,0,15.71-20.46,1.97-33.47c-13.73-13.02-26.69-14.37-26.69-14.37S314.23,156.22,307.52,184.18
		z"/>
	<path class="st0" d="M282.24,135.8c-30.43-44.25-64.91-50.57-64.91-50.57S279.6,89.01,282.24,135.8"/>
	<path class="st0" d="M282.24,136.34c23.06,49.7,4.81,76.26,4.81,76.26S327.74,169.81,282.24,136.34"/>
	<path class="st0" d="M187.46,120.68"/>
	<path class="st0" d="M282.36,307.6c-0.37,0.1-0.79,0.22-1.26,0.33s-0.98,0.23-1.54,0.35c-8.81,0.19-22.21,4.65-28.33-4.14
		c-0.6-0.43-1.29-0.78-2-1.11c-2.11-1-4.15-2.14-6.06-3.48c-0.64-0.18-1.3-0.29-1.96-0.38c-3.3-0.45-6.61-0.19-7.31-2.98
		c-1.12-3.35,4.47-5.58,2.95-10.57c-0.34-0.43-0.73-0.82-1.18-1.19c-1.35-1.1-3.19-1.94-5.38-2.79c-0.43-0.75-0.85-1.31-1.33-1.73
		c-2.41-2.11-6.59-1.02-8.46-3.82c-1.12-3.35,4.47-2.23,4.74-5.86c0.16-0.7,0.24-1.37,0.27-2.03c0.1-2.18-0.4-4.16-1.49-6.11
		c-0.27-0.49-0.58-0.97-0.93-1.46c-1.48-3.52-3.71-5.75-6.23-7.96c-0.58-0.8-0.84-1.6-0.73-2.46c0.11-0.85,0.58-1.75,1.48-2.73
		c0.39-0.51,0.77-1.06,1-1.7c0.24-0.64,0.34-1.37,0.2-2.25c-0.1-0.62-0.19-1.25-0.28-1.89c0,0-13.74,0-19.24,0
		c-1.37,0-2.23,0-2.23,0c0.56,0.72,1.05,1.41,1.49,2.08c0.44,0.67,0.83,1.33,1.17,1.98c2.01,1.8,4.13,3.53,5.18,5.57
		c0.26,0.51,0.46,1.04,0.69,1.58c2.62,4.26-0.73,10.96,5.64,10.28c0.84,0.36,1.44,0.86,1.44,1.79c0.93,2.79-5.12,1.71-7.22,4.6
		c-0.42,0.58-0.68,1.32-0.92,2.31c-2.63,1.01-3.11,2.63-2.85,4.52c0.09,0.63,0.26,1.29,0.45,1.96c-0.63,5.59-2.87,6.7,0.81,12.27
		c-0.16,0.5-0.39,0.98-0.67,1.44c-1.13,1.85-3.16,3.46-5.54,4.99c-0.61,0.57-1.21,1.1-1.76,1.59c-3.35,2.97-5.36,4.91-0.86,10.18
		c-0.12,0.63-0.38,1.17-0.75,1.66c-1.84,2.43-6.15,3.51-9.5,5.23c-0.73,0.49-1.45,0.94-2.16,1.37c-4.96,2.97-9.3,4.68-9.78,11.52
		c-0.6,0.39-1.22,0.76-1.86,1.11c-2.56,1.4-5.42,2.47-8.41,3.37c-0.7,0.28-1.38,0.54-2.05,0.81c-4,1.58-7.88,3.52-10.52,8.35
		c-0.67,0.27-1.31,0.53-1.93,0.8c-2.47,1.07-4.45,2.31-5.94,4.54c2.79-2.09,6.02-2.88,9.03-3.95c0.6-0.21,1.2-0.44,1.77-0.7
		c1.52-6.4,5.95-7.55,10.9-8.55c0.71-0.14,1.43-0.28,2.16-0.44c2.96-0.79,5.81-1.98,8.5-3.46c0.67-0.37,1.33-0.76,1.98-1.16
		c-0.76-9.68,5.49-8.84,12.08-11.18c0.73-0.26,1.47-0.56,2.2-0.92c2.06-3.19,7.6-3.98,9.4-7.11c0.3-0.52,0.47-1.13,0.38-1.91
		c-7.14-5.59-0.34-7.15,4.24-10.73c0.65-0.51,1.26-1.07,1.79-1.69c0.72-1.45,1.92-2.73,2.8-4.1c0.29-0.46,0.55-0.92,0.69-1.42
		c-3.16-2.96-6.51-7.43,0.19-9.66c-1.12-1.12-1.12-1.12-2.65-2.17c-0.42-0.27-0.7-0.62-0.7-1.18c0-3.35,3.35-4.47,6.83-6.09
		c-0.09-0.67,0.06-1.19,0.44-1.63c1.57-1.81,7.1-2.22,5.67-5.54c-0.14-0.33-0.35-0.69-0.65-1.09c-0.02-0.17-6.72-1.29,0.35-0.92
		c0.43,0.23,0.81,0.54,1.16,0.89c0.7,0.7,1.26,1.54,1.81,2.09c0,1.12-0.56,1.95-1.19,2.65s-1.33,1.25-1.61,1.79
		c0.56,5.61-8.37,3.38-6.14,6.73c0.19,0.56,0.53,0.99,0.98,1.34c0.45,0.35,1.02,0.61,1.66,0.82c5.17,0.07,9.64,3.42,14.36,6.52
		c0.48,0.29,0.93,0.59,1.33,0.91c0.39,0.32,0.75,0.67,1.03,1.04c0.34,0.44,0.59,0.92,0.7,1.45c-4.67,5.47-2.12,8.87,1.96,11.48
		c0.68,0.43,1.4,0.85,2.15,1.26c2.46,0.93,4.89,1.78,7.26,2.65c0.79,0.29,1.58,0.58,2.35,0.88c4.3,4.21,9.78,6.02,15.72,6.49
		c0.74,0.06,1.49,0.1,2.25,0.12c2.94-0.35,6.29-0.35,9.24-0.53c0.78-0.1,1.56-0.21,2.33-0.32c0.72-0.19,1.44-0.4,2.18-0.63
		c1.46-0.46,2.96-1,4.48-1.62C282.97,307.81,282.68,307.5,282.36,307.6z"/>
	<path class="st0" d="M141.26,341.84c0,0,0.11,0.26,0.36,0.7c-1.5,10.57,7.43,8.34,14.48,11.59c0.52,0.21,1.07,0.41,1.62,0.6
		c1.01,0.35,2.07,0.67,3.19,0.96c0.56,0.15,1.14,0.28,1.73,0.41c6.62,3.72,13.27,4.34,19.95,3.61c0.83-0.09,1.67-0.2,2.51-0.33
		c11.96-2.92,23.12-8.51,36.52-8.51c-13.4-3.35-24.56,3.35-37.48,4.19c-0.87-0.08-1.71-0.22-2.54-0.41
		c-2.49-0.59-4.94-1.69-7.33-3.52c-0.55-0.07-1.11-0.13-1.67-0.19c-10.15-3.41-26.9,4.4-28.98-7.7
		C142.85,342.78,142.04,342.32,141.26,341.84z"/>
	<path class="st0" d="M143.6,344.27c-0.65-0.56-1.28-1.12-1.91-1.68c-0.62-0.56-1.23-1.11-1.8-1.69
		c-2.01-6.77-7.59-10.11-12.71-12.2c-0.76-0.36-1.5-0.68-2.21-1c-4.23-1.89-7.09-3.42-3.46-9.53c-0.25-0.69-0.61-1.2-1.05-1.59
		c-2.21-1.95-6.4-0.87-8.26-3.66c-1.12-3.35,2.23-4.47,4.34-6.99c-0.09-0.53-0.21-1.04-0.32-1.54c-0.17-0.77-0.26-1.52,0.01-2.23
		c1.55-2.64,4.9-1.52,4.9-3.76c0-3.35-5.58-2.23-5.56-6.38c0.11-0.79,0.24-1.46,0.36-2c0.25-1.08,0.48-1.65,0.48-1.65
		s-0.53,0.85-1.3,2.34c-0.19,0.37-0.39,0.79-0.61,1.24c-1.19,3.11,4.39,1.99,4.39,5.34c0,4.47-6.7,1.12-8.2,6.12
		c-0.15,0.79-0.28,1.59-0.39,2.41c-3.69,4.87-3.69,8.22,0.27,11.37c0.23,0.64,0.42,1.29,0.68,1.95c0.72,0.64,1.32,1.24,1.76,1.85
		c0.3,4.21,3.65,6.44,4.54,9.28c0.48,0.51,0.97,1.01,1.51,1.52c8.76,2.35,13.23,3.46,19.06,10.81c0.43,0.15,0.87,0.29,1.31,0.44
		C140.77,343.46,142.16,343.87,143.6,344.27"/>
	<path class="st0" d="M143.93,344.68c-2.45-0.43-4.82-0.89-7.1-1.37c-0.46-0.1-0.91-0.19-1.36-0.29c-4.29-1.07-4.29-4.42-6.52-5.54
		c-6.7-3.35-15.63,0-22.25-3.25c-0.59-0.25-1.17-0.49-1.73-0.73s-1.11-0.49-1.65-0.73c-0.61-0.27-1.2-0.55-1.76-0.83
		c0.59-11.2-13.93-4.5-20.05-12.87c-0.87-0.85-1.27-1.32-1.27-1.32s0.33,0.54,0.99,1.5c3.05,7.07,13.1,2.6,16.45,8.18
		c0,1.12-6.7,1.12-2.87,5.82c0.53,0.4,1.07,0.81,1.63,1.21c0.53,0.38,1.07,0.76,1.62,1.13c0.55,0.37,1.12,0.74,1.7,1.11
		c9.08,4.14,18.01-1.44,23.96,8.61c0.85,0.13,1.72,0.24,2.62,0.31C131.74,346.07,137.59,345.84,143.93,344.68"/>
	<path class="st0" d="M189.4,368.74c-0.75-0.18-1.48-0.37-2.21-0.55c-0.72-0.19-1.44-0.38-2.16-0.57
		c-10.31-2.21-15.89-3.33-20.99-12.77c-0.6-0.2-1.23-0.35-1.87-0.47c-3.89-0.69-8.61-0.13-14.15-1.22c-0.69-0.2-1.37-0.42-2.01-0.66
		c-3.84-1.47-6.45-3.94-3.94-9.1c-0.26-0.5-0.48-0.88-0.61-1.14c-0.13-0.26-0.19-0.4-0.19-0.4s0.04,0.22,0.13,0.61
		s0.24,0.98,0.27,1.77c-2.83,5,0.23,6.87,3.28,8.82c0.51,0.32,1.02,0.65,1.5,0.99c4.84,4.67,12.66,0.2,13.77,3.55
		c0.19,0.56,0.34,1.18,0.47,1.87c0.65,9.3,11.81,9.3,19.43,9.71c0.72,0.01,1.45,0.02,2.2,0.01
		C184.55,369.13,186.91,369,189.4,368.74"/>
	<path class="st0" d="M282.78,308.24c0-0.01,0.01-0.01,0.01-0.01c0.18,0.15,1.22,1.06,2.49,2.47c0.42,0.47,0.87,1,1.31,1.57
		c0.9,5.12-8.03,0.65-6.91,5.12c2.23,3.35,10.05,1.12,9.62,8.01c-0.22,0.39-0.47,0.77-0.77,1.15c-2.75,3.35-5.96,5.04-9.28,6.42
		c-0.66,0.28-1.34,0.54-2.03,0.82c-7.99,3.39-17.1,2.74-25.44,4.33c-0.76,0.14-1.51,0.31-2.25,0.49c0.78-0.33,1.57-0.61,2.37-0.85
		c7.21-2.13,15.06-0.84,21.29-6.04c0.65-0.3,1.29-0.61,1.89-0.93c3.03-1.64,5.37-3.85,5.04-7.71c-0.08-0.77-0.33-1.37-0.69-1.85
		c-1.78-2.43-6.28-1.96-5.35-3.83c0-3.35,10.05,0,9.46-6.2c-0.07-0.48-0.17-0.97-0.3-1.46S282.96,308.74,282.78,308.24z"/>
	<path class="st0" d="M301.61,276.87c-0.72,0.33-1.84,1.44-2.95,2.56c5.58,2.23,11.16,2.23,15.36,4.96c0.56,0.77,0.9,1.54,1.16,2.31
		c0.21,0.64,0.36,1.3,0.45,1.96c0.09,0.66,0.11,1.33,0.05,2.01c0.84,5.51-5.86,8.86-10.69,10.53c-0.56,0.28-1.11,0.54-1.66,0.79
		c-10.95,5.06-19.94,5.66-19.94,5.66s2.6-1.06,6.15-3c0.71-0.39,1.46-0.81,2.23-1.27c5.77-6.08,19.16-2.73,15.26-14.06
		c0.23-0.43,0.44-0.87,0.64-1.31s0.38-0.89,0.53-1.34c0.14-0.45,0.26-0.9,0.35-1.36c-2.09-4.77-7.68-3.65-11.03-5.88
		c-1.12-1.12,1.12-2.23,1.89-1.85C300.09,277.35,300.83,277.11,301.61,276.87z"/>
	<path class="st0" d="M282.82,308c-0.72,0.68-1.45,1.35-2.18,2c-0.36,0.33-0.73,0.65-1.1,0.97c-4.6,2.15-8.71,3.89-12.24,7.11
		c-0.5,0.46-1,0.95-1.43,1.57c2.98,10.59-7.6,9.3-16.4,11.25c-0.46,0.1-0.92,0.21-1.37,0.34c-0.64,0.29-1.28,0.58-1.92,0.85
		c-0.65,0.28-1.3,0.55-2,0.81c-8.04,1.25-15.85,3.48-23.78,7.32c-0.52,0.11-0.98,0.18-1.35,0.24c-0.74,0.12-1.13,0.16-1.13,0.16
		s0.5-0.02,1.42-0.08c0.46-0.03,1.02-0.07,1.66-0.13c8.45-1.81,17.38-5.16,27.96-5.6c0.77-0.19,1.54-0.37,2.31-0.55
		c5.36-1.27,10.71-2.42,16.04-3.34c0.73-0.11,1.45-0.25,2.15-0.42c2.11-0.52,4.09-1.39,5.76-3.06c1.12-2.23,0-5.58-2.22-7
		c-0.42-0.74-0.6-1.36-0.58-1.9c0.1-3.23,7.1-3.61,9.95-7.62c0.11-0.47,0.2-0.95,0.28-1.44C282.72,309,282.78,308.5,282.82,308"/>
	<path class="st0" d="M282.82,307.65c0.35-0.49,0.69-0.97,1.02-1.45c0.33-0.48,0.65-0.95,0.96-1.43c0.31-0.47,0.62-0.94,0.92-1.42
		c4-4.95,9.58-4.95,15.16-7.18c-2.23-3.35-6.7-2.23-8.59-5.34c-0.11-0.56,0.06-1.12,0.24-1.67c0.17-0.55,0.34-1.09,0.49-1.63
		c0.22-0.8,0.42-1.59,0.59-2.36c-3.88-5.75-5-6.86,0.66-11.73c-0.2-0.68-0.05-1.18,0.3-1.57c1.79-1.96,8.92-1.19,5.2-5.84
		c-2.23-2.23-7.82-1.12-9.67-4.42c-0.27-0.42-0.53-0.8-0.77-1.13c-0.97-1.33-1.69-2.01-1.69-2.01s1.13,0.77,2.8,2.14
		c0.42,0.34,0.87,0.73,1.35,1.16c3.51,3.15,9.09,2.03,11.33,6.49c0,0.56-0.28,1.4-0.67,2.22c-0.39,0.82-0.89,1.63-1.33,2.13
		c0.88,5.7-8.05,2.35-6.93,6.81c2.23,3.35,7.82,2.23,10.11,5.88c-0.06,0.61-0.15,1.22-0.28,1.83c-0.12,0.56-0.27,1.13-0.45,1.7
		c-1.56,3.99,5.14,5.11,2.91,7.34c-3.35,4.47-11.16,2.23-15.97,7.28c-0.45,0.29-0.91,0.57-1.38,0.85
		C287.23,305.44,285.14,306.55,282.82,307.65"/>
	<path class="st0" d="M188.04,317.75"/>
</g>
<rect x="7.8" y="8.09" class="st1" width="409.02" height="409.02"/>
</svg>
