<?xml version="1.0" encoding="utf-8"?>
<!-- Generator: Adobe Illustrator 24.0.2, SVG Export Plug-In . SVG Version: 6.00 Build 0)  -->
<svg version="1.1" id="Capa_1" xmlns="http://www.w3.org/2000/svg" xmlns:xlink="http://www.w3.org/1999/xlink" x="0px" y="0px"
	 viewBox="0 0 841.89 595.28" style="enable-background:new 0 0 841.89 595.28;" xml:space="preserve">
<style type="text/css">
	.st0{font-family:'Consolas-Bold';}
	.st1{font-size:63.3897px;}
	.st2{fill:#040304;stroke:#000000;stroke-miterlimit:10;}
	.st3{fill:none;stroke:#000000;stroke-width:3;stroke-miterlimit:10;}
</style>
<text transform="matrix(1.1318 0 0 1 388.6826 327.7686)" class="st0 st1">Mis Viajes</text>
<g>
	<path class="st2" d="M218.46,322.06h21.13c11.45-117.16,54.75-105.31,64.51-101.06c0.33,0.14,0.63-0.34,0.33-0.53
		c-37.63-23.93-58.12,30.35-67.92,71.91c-0.33,1.4-2.38,1.17-2.38-0.27c0.18-38.18-11.35-94.1-71-132.03
		c-0.32-0.21-0.65,0.27-0.35,0.51C177.86,172.8,247.24,234.9,218.46,322.06z"/>
	<path class="st2" d="M160.91,167.1c0,0,7.08-25.77,36.67-24.38c29.59,1.39,44.84,10.17,44.84,10.17S186.19,142.94,160.91,167.1z"/>
	<path class="st2" d="M163.28,163.29c-37.3,50.05-27.59,87.94-27.59,87.94S109.11,186.06,163.28,163.29"/>
	<path class="st2" d="M163.62,162.64C114.57,176.04,99,205.01,99,205.01S120.16,150.28,163.62,162.64"/>
	<path class="st2" d="M209.76,124.78c-41.86,15.87-48.85,42.32-48.85,42.32S166.51,117.83,209.76,124.78"/>
	<path class="st2" d="M304.53,219.98c0,0.01,0.01,0.02,0.02,0.01c0.71-0.94,15.58-21.04,1.98-33.94
		c-13.94-13.21-27.08-14.58-27.08-14.58S311.29,191.64,304.53,219.98z"/>
	<path class="st2" d="M330.23,269.46c0,0,15.94-20.76,2-33.97c-13.94-13.21-27.08-14.58-27.08-14.58S337.04,241.08,330.23,269.46z"
		/>
	<path class="st2" d="M304.57,220.36c-30.89-44.91-65.88-51.32-65.88-51.32S301.9,172.87,304.57,220.36"/>
	<path class="st2" d="M304.57,220.91c23.41,50.44,4.88,77.39,4.88,77.39S350.76,254.88,304.57,220.91"/>
	<path class="st2" d="M208.38,205.01"/>
	<path class="st2" d="M304.69,394.71c-0.38,0.11-0.81,0.22-1.28,0.34c-0.47,0.12-1,0.23-1.56,0.35c-8.95,0.19-22.54,4.72-28.76-4.2
		c-0.61-0.44-1.31-0.79-2.03-1.13c-2.14-1.02-4.21-2.17-6.15-3.53c-0.65-0.18-1.32-0.3-1.98-0.39c-3.35-0.45-6.71-0.19-7.42-3.02
		c-1.13-3.4,4.53-5.67,3-10.73c-0.34-0.44-0.74-0.84-1.2-1.21c-1.37-1.11-3.24-1.97-5.46-2.84c-0.44-0.77-0.86-1.33-1.35-1.75
		c-2.44-2.14-6.69-1.04-8.58-3.87c-1.13-3.4,4.53-2.27,4.81-5.95c0.16-0.71,0.24-1.39,0.27-2.06c0.1-2.22-0.4-4.23-1.51-6.2
		c-0.28-0.49-0.59-0.99-0.94-1.48c-1.5-3.57-3.77-5.84-6.32-8.08c-0.59-0.81-0.85-1.63-0.75-2.49c0.11-0.87,0.59-1.78,1.5-2.77
		c0.4-0.52,0.78-1.08,1.02-1.73s0.35-1.39,0.2-2.29c-0.1-0.63-0.19-1.27-0.28-1.92c0,0-13.95,0-19.52,0c-1.39,0-2.27,0-2.27,0
		c0.56,0.73,1.07,1.43,1.51,2.11s0.84,1.35,1.19,2.01c2.04,1.82,4.2,3.58,5.25,5.65c0.26,0.52,0.46,1.05,0.7,1.6
		c2.66,4.32-0.74,11.12,5.73,10.44c0.85,0.37,1.46,0.87,1.46,1.82c0.94,2.83-5.19,1.73-7.32,4.67c-0.43,0.59-0.69,1.34-0.93,2.34
		c-2.67,1.03-3.16,2.67-2.89,4.59c0.09,0.64,0.26,1.31,0.46,1.99c-0.64,5.67-2.91,6.8,0.82,12.45c-0.16,0.5-0.39,0.99-0.68,1.46
		c-1.15,1.88-3.21,3.51-5.63,5.06c-0.62,0.58-1.22,1.11-1.79,1.61c-3.4,3.01-5.44,4.99-0.88,10.33c-0.12,0.64-0.39,1.19-0.76,1.68
		c-1.86,2.47-6.24,3.56-9.64,5.3c-0.74,0.5-1.47,0.96-2.19,1.39c-5.04,3.01-9.43,4.75-9.93,11.69c-0.61,0.4-1.24,0.77-1.88,1.13
		c-2.59,1.42-5.5,2.51-8.53,3.42c-0.71,0.29-1.4,0.55-2.08,0.82c-4.06,1.61-7.99,3.57-10.68,8.47c-0.68,0.28-1.33,0.54-1.96,0.81
		c-2.5,1.09-4.52,2.34-6.03,4.61c2.83-2.12,6.11-2.92,9.16-4.01c0.61-0.22,1.21-0.45,1.79-0.71c1.54-6.5,6.04-7.66,11.06-8.67
		c0.72-0.14,1.45-0.29,2.19-0.45c3.01-0.81,5.9-2.01,8.63-3.51c0.68-0.37,1.35-0.77,2.01-1.18c-0.77-9.83,5.58-8.98,12.26-11.35
		c0.74-0.26,1.49-0.57,2.23-0.93c2.09-3.23,7.71-4.04,9.54-7.22c0.31-0.53,0.48-1.15,0.39-1.93c-7.24-5.68-0.34-7.25,4.31-10.89
		c0.66-0.52,1.28-1.08,1.82-1.72c0.73-1.47,1.94-2.77,2.84-4.16c0.3-0.46,0.55-0.94,0.7-1.44c-3.21-3.01-6.61-7.54,0.19-9.8
		c-1.13-1.13-1.13-1.13-2.69-2.2c-0.43-0.27-0.71-0.63-0.71-1.19c0-3.4,3.4-4.53,6.94-6.18c-0.09-0.68,0.06-1.21,0.44-1.65
		c1.59-1.84,7.21-2.26,5.76-5.62c-0.14-0.34-0.36-0.7-0.65-1.1c-0.02-0.17-6.82-1.31,0.36-0.93c0.44,0.23,0.83,0.55,1.18,0.9
		c0.71,0.71,1.27,1.56,1.84,2.12c0,1.13-0.57,1.98-1.2,2.69c-0.64,0.7-1.35,1.26-1.63,1.82c0.57,5.69-8.49,3.43-6.23,6.83
		c0.19,0.57,0.54,1.01,1,1.36s1.04,0.62,1.69,0.83c5.25,0.07,9.78,3.47,14.57,6.62c0.49,0.29,0.94,0.6,1.35,0.93
		c0.4,0.33,0.76,0.68,1.05,1.05c0.35,0.45,0.6,0.94,0.71,1.48c-4.74,5.55-2.15,9,1.99,11.65c0.69,0.44,1.42,0.86,2.19,1.27
		c2.5,0.94,4.96,1.8,7.37,2.69c0.8,0.29,1.6,0.59,2.39,0.89c4.36,4.28,9.93,6.11,15.96,6.59c0.75,0.06,1.51,0.1,2.28,0.12
		c2.99-0.36,6.39-0.36,9.38-0.54c0.79-0.1,1.58-0.21,2.37-0.33c0.73-0.19,1.47-0.41,2.21-0.64c1.49-0.47,3-1.02,4.54-1.65
		C305.32,394.93,305.02,394.62,304.69,394.71z"/>
	<path class="st2" d="M161.5,429.46c0,0,0.11,0.26,0.36,0.71c-1.52,10.73,7.54,8.46,14.69,11.76c0.53,0.21,1.08,0.41,1.65,0.61
		c1.02,0.35,2.1,0.68,3.24,0.97c0.57,0.15,1.15,0.29,1.75,0.42c6.72,3.77,13.47,4.4,20.24,3.67c0.85-0.09,1.69-0.21,2.55-0.34
		c12.14-2.97,23.47-8.63,37.06-8.63c-13.6-3.4-24.93,3.4-38.04,4.25c-0.88-0.08-1.73-0.22-2.58-0.42c-2.53-0.59-5.02-1.71-7.44-3.57
		c-0.56-0.07-1.13-0.13-1.69-0.19c-10.3-3.46-27.3,4.47-29.41-7.81C163.11,430.42,162.29,429.95,161.5,429.46z"/>
	<path class="st2" d="M163.87,431.92c-0.66-0.57-1.3-1.14-1.93-1.7s-1.25-1.13-1.83-1.71c-2.04-6.87-7.71-10.26-12.9-12.38
		c-0.77-0.36-1.52-0.69-2.24-1.01c-4.3-1.92-7.2-3.47-3.51-9.67c-0.25-0.7-0.62-1.22-1.07-1.61c-2.25-1.98-6.49-0.88-8.38-3.71
		c-1.13-3.4,2.27-4.53,4.41-7.09c-0.09-0.53-0.21-1.05-0.32-1.56c-0.17-0.78-0.26-1.54,0.01-2.27c1.58-2.68,4.98-1.55,4.98-3.81
		c0-3.4-5.67-2.27-5.64-6.48c0.11-0.8,0.24-1.48,0.37-2.03c0.25-1.1,0.48-1.67,0.48-1.67s-0.54,0.86-1.31,2.37
		c-0.19,0.38-0.4,0.8-0.62,1.25c-1.21,3.15,4.45,2.02,4.45,5.42c0,4.53-6.8,1.13-8.32,6.21c-0.15,0.8-0.29,1.61-0.4,2.44
		c-3.74,4.94-3.74,8.34,0.27,11.53c0.24,0.65,0.43,1.31,0.69,1.98c0.73,0.65,1.34,1.26,1.78,1.88c0.31,4.27,3.71,6.54,4.61,9.41
		c0.49,0.51,0.99,1.02,1.53,1.54c8.89,2.38,13.43,3.51,19.34,10.97c0.44,0.15,0.88,0.3,1.33,0.44
		C161,431.11,162.41,431.53,163.87,431.92"/>
	<path class="st2" d="M164.21,432.34c-2.49-0.44-4.89-0.9-7.21-1.39c-0.46-0.1-0.92-0.2-1.38-0.29c-4.35-1.09-4.35-4.48-6.62-5.62
		c-6.8-3.4-15.86,0-22.58-3.3c-0.6-0.25-1.18-0.5-1.75-0.74c-0.57-0.25-1.13-0.49-1.68-0.74c-0.62-0.28-1.22-0.55-1.79-0.84
		c0.6-11.37-14.13-4.57-20.34-13.06c-0.88-0.86-1.29-1.34-1.29-1.34s0.33,0.55,1.01,1.52c3.09,7.17,13.29,2.64,16.69,8.31
		c0,1.13-6.8,1.13-2.91,5.9c0.54,0.41,1.08,0.82,1.65,1.22c0.54,0.38,1.09,0.77,1.65,1.15c0.56,0.38,1.14,0.75,1.73,1.12
		c9.21,4.2,18.28-1.46,24.31,8.74c0.86,0.14,1.75,0.24,2.66,0.32C151.83,433.75,157.78,433.52,164.21,432.34"/>
	<path class="st2" d="M210.35,456.76c-0.76-0.19-1.5-0.37-2.24-0.56c-0.74-0.19-1.46-0.38-2.19-0.58
		c-10.46-2.25-16.12-3.38-21.3-12.96c-0.61-0.2-1.24-0.35-1.9-0.47c-3.95-0.7-8.74-0.13-14.36-1.24c-0.71-0.2-1.39-0.42-2.04-0.67
		c-3.89-1.49-6.55-4-4-9.24c-0.27-0.51-0.48-0.9-0.62-1.16c-0.14-0.26-0.19-0.41-0.19-0.41s0.04,0.22,0.14,0.62
		c0.1,0.4,0.24,0.99,0.27,1.79c-2.88,5.07,0.23,6.97,3.33,8.95c0.52,0.33,1.03,0.66,1.52,1.01c4.91,4.74,12.84,0.21,13.98,3.61
		c0.19,0.57,0.35,1.2,0.48,1.89c0.66,9.44,11.99,9.44,19.72,9.85c0.73,0.01,1.48,0.02,2.23,0.01
		C205.44,457.16,207.83,457.02,210.35,456.76"/>
	<path class="st2" d="M305.12,395.36c0-0.01,0.01-0.01,0.02-0.01c0.18,0.15,1.24,1.08,2.52,2.51c0.43,0.48,0.88,1.01,1.33,1.59
		c0.92,5.19-8.15,0.66-7.01,5.19c2.27,3.4,10.2,1.13,9.77,8.12c-0.22,0.39-0.48,0.78-0.78,1.16c-2.79,3.4-6.04,5.12-9.42,6.52
		c-0.67,0.28-1.36,0.55-2.06,0.83c-8.11,3.45-17.35,2.78-25.82,4.39c-0.77,0.15-1.53,0.31-2.29,0.5c0.79-0.34,1.6-0.62,2.41-0.86
		c7.31-2.16,15.29-0.86,21.6-6.13c0.66-0.31,1.31-0.62,1.92-0.95c3.07-1.66,5.45-3.91,5.12-7.82c-0.09-0.78-0.34-1.39-0.7-1.88
		c-1.81-2.47-6.37-1.99-5.42-3.88c0-3.4,10.2,0,9.6-6.29c-0.07-0.49-0.18-0.99-0.31-1.49C305.46,396.37,305.31,395.87,305.12,395.36
		z"/>
	<path class="st2" d="M324.23,363.53c-0.73,0.33-1.86,1.46-3,2.6c5.67,2.27,11.33,2.27,15.59,5.03c0.57,0.79,0.92,1.56,1.18,2.34
		c0.21,0.65,0.37,1.32,0.45,1.99c0.09,0.67,0.11,1.35,0.05,2.04c0.85,5.59-5.95,8.99-10.85,10.68c-0.57,0.28-1.13,0.55-1.68,0.8
		c-11.11,5.13-20.24,5.75-20.24,5.75s2.64-1.08,6.24-3.05c0.72-0.39,1.48-0.82,2.26-1.29c5.85-6.17,19.45-2.77,15.49-14.27
		c0.23-0.44,0.45-0.88,0.65-1.33c0.2-0.45,0.38-0.9,0.54-1.36c0.14-0.45,0.27-0.91,0.36-1.38c-2.13-4.84-7.79-3.7-11.19-5.97
		c-1.13-1.13,1.13-2.27,1.92-1.88C322.69,364.01,323.44,363.77,324.23,363.53z"/>
	<path class="st2" d="M305.17,395.12c-0.74,0.69-1.47,1.37-2.21,2.03c-0.37,0.33-0.74,0.66-1.12,0.99
		c-4.67,2.18-8.84,3.95-12.43,7.21c-0.51,0.47-1.01,0.97-1.45,1.59c3.02,10.75-7.71,9.44-16.65,11.41c-0.47,0.1-0.94,0.22-1.39,0.34
		c-0.65,0.3-1.3,0.58-1.95,0.87c-0.66,0.28-1.32,0.56-2.03,0.82c-8.16,1.27-16.09,3.53-24.14,7.43c-0.53,0.11-0.99,0.19-1.37,0.24
		c-0.75,0.12-1.15,0.17-1.15,0.17s0.51-0.02,1.44-0.08c0.46-0.03,1.03-0.07,1.68-0.13c8.58-1.83,17.64-5.23,28.38-5.68
		c0.78-0.19,1.56-0.38,2.34-0.56c5.44-1.28,10.87-2.46,16.28-3.39c0.74-0.12,1.47-0.25,2.19-0.43c2.14-0.52,4.15-1.41,5.85-3.11
		c1.13-2.27,0-5.67-2.25-7.1c-0.43-0.75-0.61-1.38-0.59-1.93c0.11-3.28,7.2-3.66,10.1-7.73c0.11-0.48,0.2-0.97,0.28-1.46
		C305.06,396.13,305.12,395.63,305.17,395.12"/>
	<path class="st2" d="M305.17,394.76c0.35-0.49,0.7-0.98,1.04-1.47c0.34-0.49,0.66-0.97,0.98-1.45c0.32-0.48,0.62-0.95,0.93-1.44
		c4.06-5.02,9.72-5.02,15.39-7.29c-2.27-3.4-6.8-2.27-8.72-5.42c-0.11-0.57,0.06-1.13,0.24-1.69s0.34-1.11,0.49-1.65
		c0.23-0.82,0.42-1.62,0.6-2.4c-3.94-5.83-5.07-6.97,0.67-11.91c-0.2-0.69-0.06-1.2,0.31-1.6c1.82-1.99,9.06-1.21,5.28-5.93
		c-2.27-2.27-7.93-1.13-9.81-4.49c-0.27-0.43-0.54-0.81-0.78-1.15c-0.99-1.35-1.72-2.04-1.72-2.04s1.15,0.78,2.85,2.18
		c0.42,0.35,0.88,0.74,1.37,1.17c3.56,3.19,9.23,2.06,11.5,6.59c0,0.57-0.28,1.42-0.68,2.25c-0.4,0.84-0.9,1.66-1.35,2.17
		c0.9,5.78-8.17,2.38-7.03,6.91c2.27,3.4,7.93,2.27,10.26,5.97c-0.06,0.62-0.15,1.24-0.29,1.86c-0.12,0.57-0.27,1.15-0.46,1.72
		c-1.58,4.05,5.22,5.18,2.95,7.45c-3.4,4.53-11.33,2.27-16.2,7.39c-0.46,0.29-0.92,0.58-1.4,0.86
		C309.64,392.52,307.52,393.65,305.17,394.76"/>
	<path class="st2" d="M208.97,405.02"/>
</g>
<rect x="8.44" y="96.36" class="st3" width="827.39" height="403.88"/>
</svg>
